<svg xmlns="http://www.w3.org/2000/svg" viewBox="0 0 50 50" width="50px" height="50px">
  <!-- Background circle -->
  <circle cx="25" cy="25" r="23" fill="#f8f8f8" stroke="#e76f00" stroke-width="2"/>
  
  <!-- Java Coffee Cup -->
  <path fill="#5382a1" d="M19.5,23c0,0,2.2,1.3,5.5,1.5c3.3,0.1,7.1-0.2,9.3-1.5c0,0-5,2.1-7.4,2.2C24.5,25.4,20.9,24.6,19.5,23z"/>
  <path fill="#5382a1" d="M20.3,19.4c0,0,2.5,1.9,5.3,2c2.8,0.1,4.3-0.5,7.2-1.7c0,0-4.7,1.4-6.1,1.3C25.2,20.9,21.8,20.1,20.3,19.4z"/>
  <path fill="#e76f00" d="M30.2,12.1c1.1,1.3,0.6,2.5,0.6,2.5s2-1-0.6-3.4c-2.2-2-3.9-1.4-6.7-2.5c0,0,0.4,0.7,2.6,1.6C27.6,10.9,29.4,11.2,30.2,12.1"/>
  <path fill="#e76f00" d="M32.4,16.1c0,0,0.8-0.5-0.9-1.6c-3.2-2.1-14.4-1.3-18.5,0.3c0,0,2-0.9,4.6-1.2c5.9-0.7,15,0.4,14.8,2.5"/>
  <path fill="#5382a1" d="M19.1,28.9c-3.6,0.7-2.6,1.7-2.6,1.7c-3-0.7-6.2-2.8-2.7-2.4C17.8,28.7,19.1,28.9,19.1,28.9"/>
  <path fill="#5382a1" d="M33.7,31.6c0,0-0.5,0.3-1.6,0.6c-3,0.6-12.4,1.2-15,0.3c0,0,0.8,0.6,4.9,1.2C28.5,34.8,34.9,33.1,33.7,31.6"/>
  <path fill="#5382a1" d="M19.6,26c-4.1,1.2-2.4,2.3-2.4,2.3c-2.9-0.6-5-2-2.1-1.7C18.5,27,19.6,26,19.6,26"/>
  <path fill="#5382a1" d="M30.1,29.2c0,0,2.5-0.9-0.1-1.7c-5.3-1.7-9.9-0.8-16.4-0.4c-2.5,0.1,0.8-0.9,1.5-1c2.5-0.4,9.2-0.7,14.1,0.4C33.8,27.4,30.1,29.2,30.1,29.2"/>
  <path fill="#e76f00" d="M15,35.1c3.7,0.4,13.6,0.2,13.8-1.6c0,0-0.4,0.6-4.4,1C20.3,35,15.7,34.8,15,35.1"/>
  
  <!-- Three-dimensional effect on cup -->
  <path fill="#e76f00" d="M15.1,37.9c0,0,2.2,1.9,7.3,2.6c5.1,0.7,9.5,0.3,11.4-0.2c0,0-1.8,0.9-4.9,1.5c-4.2,0.8-14.3,0.7-13.9-3.9"/>
  
  <!-- Java text -->
  <text x="25" y="45" font-family="Arial, sans-serif" font-size="5" text-anchor="middle" font-weight="bold" fill="#e76f00">Java</text>
</svg>