<svg xmlns="http://www.w3.org/2000/svg" width="90" height="90" viewBox="0 0 90 90">
  <!-- Background circle -->
  <circle cx="45" cy="45" r="42" fill="#f0f9ff" stroke="#0ea5e9" stroke-width="2" />
  
  <!-- Gear icon -->
  <g transform="translate(20, 20)">
    <path fill="#0ea5e9" d="M37.7,22.3v-4.7L33.2,17c-0.3-1.2-0.8-2.3-1.4-3.4l2.4-3.6l-3.3-3.3l-3.6,2.4c-1-0.6-2.2-1.1-3.4-1.4l-0.7-4.5h-4.7l-0.7,4.5
      c-1.2,0.3-2.3,0.8-3.4,1.4l-3.6-2.4l-3.3,3.3l2.4,3.6c-0.6,1-1.1,2.2-1.4,3.4l-4.5,0.7v4.7l4.5,0.7c0.3,1.2,0.8,2.3,1.4,3.4l-2.4,3.6
      l3.3,3.3l3.6-2.4c1,0.6,2.2,1.1,3.4,1.4l0.7,4.5h4.7l0.7-4.5c1.2-0.3,2.3-0.8,3.4-1.4l3.6,2.4l3.3-3.3l-2.4-3.6c0.6-1,1.1-2.2,1.4-3.4
      L37.7,22.3z M20,28c-4.4,0-8-3.6-8-8s3.6-8,8-8s8,3.6,8,8S24.4,28,20,28z"/>
    
    <!-- Inner circle of gear -->
    <circle cx="20" cy="20" r="5" fill="white" />
  </g>
  
  <!-- Text "Settings" at the bottom -->
  <text x="45" y="75" font-family="Arial, sans-serif" font-size="10" text-anchor="middle" font-weight="bold" fill="#0ea5e9">
    Settings
  </text>
</svg> 